<?xml version="1.0" encoding="UTF-8"?>
<svg width="46px" height="46px" viewBox="0 0 46 46" version="1.1" xmlns="http://www.w3.org/2000/svg" xmlns:xlink="http://www.w3.org/1999/xlink">
    <!-- Generator: Sketch 47.1 (45422) - http://www.bohemiancoding.com/sketch -->
    <title>Defects</title>
    <desc>Created with Sketch.</desc>
    <defs></defs>
    <g id="Page-1" stroke="none" stroke-width="1" fill="none" fill-rule="evenodd" opacity="0.5">
        <g id="User_page" transform="translate(-120.000000, -545.000000)" stroke="#FFFFFF">
            <g id="Defects" transform="translate(120.000000, 545.000000)">
                <g id="noun_1450218_cc" transform="translate(11.000000, 9.000000)" stroke-width="0.2" fill="#FFFFFF" fill-rule="nonzero">
                    <g id="Group">
                        <path d="M17.8012948,12.2749711 L11.4407551,5.95520416 L0.24,5.95520416 L0.24,28.0589744 L17.8012948,28.0589744 L17.8012948,12.2749711 Z M11.6579443,7.03418876 L16.6843219,12.028346 L11.6579443,12.028346 L11.6579443,7.03418876 Z M17.1807543,27.4424117 L0.860540451,27.4424117 L0.860540451,6.57176679 L11.0374038,6.57176679 L11.0374038,12.6449087 L17.1807543,12.6449087 L17.1807543,27.4424117 Z" id="Shape"></path>
                        <path d="M20.4075647,21.6158949 L20.4075647,22.2324575 L23.634375,22.2324575 L23.634375,6.44845426 L17.2738354,0.128687332 L6.07308024,0.128687332 L6.07308024,3.36564113 L6.69362069,3.36564113 L6.69362069,0.74524996 L16.9015111,0.74524996 L16.9015111,6.84921997 L23.0138345,6.84921997 L23.0138345,21.6158949 L20.4075647,21.6158949 Z M17.5220516,6.23265734 L17.5220516,1.23850006 L22.5484292,6.23265734 L17.5220516,6.23265734 Z" id="Shape"></path>
                    </g>
                </g>
                <circle id="Oval" cx="23" cy="23" r="22.5"></circle>
            </g>
        </g>
    </g>
</svg>