<?xml version="1.0" encoding="UTF-8"?>
<svg width="26px" height="26px" viewBox="0 0 26 26" version="1.1" xmlns="http://www.w3.org/2000/svg" xmlns:xlink="http://www.w3.org/1999/xlink">
    <!-- Generator: Sketch 47.1 (45422) - http://www.bohemiancoding.com/sketch -->
    <title>noun_924673_cc</title>
    <desc>Created with Sketch.</desc>
    <defs></defs>
    <g id="Page-1" stroke="none" stroke-width="1" fill="none" fill-rule="evenodd">
        <g id="User_page" transform="translate(-724.000000, -315.000000)" fill-rule="nonzero" fill="#49484D">
            <g id="noun_924673_cc" transform="translate(724.000000, 314.000000)">
                <g id="Group" transform="translate(0.000000, 0.637820)">
                    <path d="M13,0.36219 C5.82387907,0.36219 0,6.18606907 0,13.362193 C0,16.1850977 0.897816279,18.7975535 2.42805233,20.9297651 C2.40982209,20.9551605 2.38942721,20.9797093 2.37136628,21.0053465 L2.60755814,21.1754047 C4.98068395,24.3242465 8.75610465,26.362193 13,26.362193 C17.2438953,26.362193 21.019316,24.3242465 23.3924419,21.1754047 L23.6286337,21.0053465 C23.6105849,20.9796488 23.590187,20.9552814 23.5719477,20.9297651 C25.1021837,18.7975535 26,16.1850977 26,13.362193 C26,6.18606907 20.1761209,0.36219 13,0.36219 Z M13,0.966841163 C19.8493433,0.966841163 25.3953488,6.51284674 25.3953488,13.362193 C25.3953488,15.9863791 24.5741781,18.4166535 23.184593,20.4195907 C20.8046981,17.4109674 17.1332684,15.4784721 13,15.4784721 C8.86673163,15.4784721 5.19530186,17.4109674 2.81540698,20.4195907 C1.42582186,18.4166535 0.604651133,15.9863791 0.604651133,13.362193 C0.604651133,6.51284674 6.15065674,0.966841163 13,0.966841163 L13,0.966841163 Z M13,3.08312023 C10.4756902,3.08312023 8.46511628,5.40817326 8.46511628,8.22265512 C8.46511628,11.037134 10.4756902,13.362193 13,13.362193 C15.5243098,13.362193 17.5348837,11.037134 17.5348837,8.22265512 C17.5348837,5.40817326 15.5243098,3.08312023 13,3.08312023 Z M13,3.6877714 C15.150847,3.6877714 16.9302326,5.69410674 16.9302326,8.22265512 C16.9302326,10.7512005 15.150847,12.7575419 13,12.7575419 C10.849153,12.7575419 9.06976744,10.7512005 9.06976744,8.22265512 C9.06976744,5.69410674 10.849153,3.6877714 13,3.6877714 Z M13,16.0831233 C17.0008044,16.0831233 20.5499102,17.9799744 22.8161337,20.9203326 C20.5502851,23.8599651 17.0013486,25.7575419 13,25.7575419 C8.9986514,25.7575419 5.44971488,23.8599651 3.18386628,20.9203326 C5.45008977,17.9799744 8.99919558,16.0831233 13,16.0831233 Z" id="Shape"></path>
                </g>
            </g>
        </g>
    </g>
</svg>