<?xml version="1.0" encoding="UTF-8"?>
<svg width="46px" height="46px" viewBox="0 0 46 46" version="1.1" xmlns="http://www.w3.org/2000/svg" xmlns:xlink="http://www.w3.org/1999/xlink">
    <!-- Generator: Sketch 47.1 (45422) - http://www.bohemiancoding.com/sketch -->
    <title>Shape</title>
    <desc>Created with Sketch.</desc>
    <defs></defs>
    <g id="Page-1" stroke="none" stroke-width="1" fill="none" fill-rule="evenodd" fill-opacity="0.999179121">
        <g id="User_page" transform="translate(-120.000000, -190.000000)" fill-rule="nonzero" fill="#FFFFFF">
            <g id="noun_924673_cc" transform="translate(120.000000, 189.000000)">
                <g id="Group" transform="translate(0.000000, 0.637820)">
                    <path d="M23,0.36219 C10.303786,0.36219 0,10.665976 0,23.3621953 C0,28.3565651 1.58844419,32.9786023 4.29578488,36.7509767 C4.2635314,36.795907 4.22744814,36.8393395 4.19549419,36.8846977 L4.61337209,37.1855698 C8.8119793,42.7565977 15.4915698,46.3621953 23,46.3621953 C30.5084302,46.3621953 37.1880207,42.7565977 41.3866279,37.1855698 L41.8045058,36.8846977 C41.7725733,36.8392326 41.7364847,36.7961209 41.7042151,36.7509767 C44.4115558,32.9786023 46,28.3565651 46,23.3621953 C46,10.665976 35.696214,0.36219 23,0.36219 Z M23,1.43195744 C35.1180688,1.43195744 44.9302326,11.2441212 44.9302326,23.3621953 C44.9302326,28.004986 43.4773921,32.3047023 41.0188953,35.8483605 C36.8083121,30.5254116 30.3127056,27.1063814 23,27.1063814 C15.6872944,27.1063814 9.19168791,30.5254116 4.98110465,35.8483605 C2.52260791,32.3047023 1.06976739,28.004986 1.06976739,23.3621953 C1.06976739,11.2441212 10.8819312,1.43195744 23,1.43195744 L23,1.43195744 Z M23,5.17614349 C18.5339135,5.17614349 14.9767442,9.28969884 14.9767442,14.2691667 C14.9767442,19.2486293 18.5339135,23.3621953 23,23.3621953 C27.4660865,23.3621953 31.0232558,19.2486293 31.0232558,14.2691667 C31.0232558,9.28969884 27.4660865,5.17614349 23,5.17614349 Z M23,6.24591093 C26.8053447,6.24591093 29.9534884,9.79558116 29.9534884,14.2691667 C29.9534884,18.742747 26.8053447,22.2924279 23,22.2924279 C19.1946553,22.2924279 16.0465116,18.742747 16.0465116,14.2691667 C16.0465116,9.79558116 19.1946553,6.24591093 23,6.24591093 Z M23,28.1761488 C30.0783463,28.1761488 36.3575335,31.5321163 40.3670058,36.7342884 C36.3581967,41.9351767 30.0793091,45.2924279 23,45.2924279 C15.9206909,45.2924279 9.64180326,41.9351767 5.63299419,36.7342884 C9.64246651,31.5321163 15.9216537,28.1761488 23,28.1761488 Z" id="Shape"></path>
                </g>
            </g>
        </g>
    </g>
</svg>